{
  "accessors": [
    {
      "bufferView": 2,
      "componentType": 5126,
      "count": 14341,
      "max": [
        9.360980033874512,
        6.4915666580200195,
        162.3191375732422
      ],
      "min": [
        -9.361916542053223,
        -12.295760154724121,
        127.77613830566406
      ],
      "type": "VEC3"
    },
    {
      "bufferView": 2,
      "byteOffset": 172092,
      "componentType": 5126,
      "count": 14341,
      "max": [
        0.9999764561653137,
        0.9999338388442993,
        0.9999929666519165
      ],
      "min": [
        -0.9999586343765259,
        -1.0,
        -0.9999698400497437
      ],
      "type": "VEC3"
    },
    {
      "bufferView": 1,
      "componentType": 5126,
      "count": 14341,
      "max": [
        1.0,
        1.0
      ],
      "min": [
        8.881784197001252e-16,
        0.0
      ],
      "type": "VEC2"
    },
    {
      "bufferView": 0,
      "componentType": 5125,
      "count": 74016,
      "type": "SCALAR"
    },
    {
      "bufferView": 2,
      "byteOffset": 344184,
      "componentType": 5126,
      "count": 55790,
      "max": [
        52.73687744140625,
        6.233824729919434,
        130.30545043945313
      ],
      "min": [
        -53.100685119628906,
        -14.738812446594238,
        5.82562255859375
      ],
      "type": "VEC3"
    },
    {
      "bufferView": 2,
      "byteOffset": 1013664,
      "componentType": 5126,
      "count": 55790,
      "max": [
        0.9999908208847046,
        0.999988853931427,
        0.999933660030365
      ],
      "min": [
        -0.9999740123748779,
        -0.9999957084655762,
        -0.9999560713768005
      ],
      "type": "VEC3"
    },
    {
      "bufferView": 1,
      "byteOffset": 114728,
      "componentType": 5126,
      "count": 55790,
      "max": [
        1.0,
        1.0000001192092896
      ],
      "min": [
        0.0,
        0.0
      ],
      "type": "VEC2"
    },
    {
      "bufferView": 0,
      "byteOffset": 296064,
      "componentType": 5125,
      "count": 179952,
      "type": "SCALAR"
    },
    {
      "bufferView": 2,
      "byteOffset": 1683144,
      "componentType": 5126,
      "count": 7753,
      "max": [
        -6.849475860595703,
        41.57765579223633,
        99.58733367919922
      ],
      "min": [
        -81.76412963867188,
        -45.08510208129883,
        -52.15955352783203
      ],
      "type": "VEC3"
    },
    {
      "bufferView": 2,
      "byteOffset": 1776180,
      "componentType": 5126,
      "count": 7753,
      "max": [
        0.9998249411582947,
        0.9999474287033081,
        0.9991374611854553
      ],
      "min": [
        -0.999984622001648,
        -0.9999929666519165,
        -0.999978244304657
      ],
      "type": "VEC3"
    },
    {
      "bufferView": 1,
      "byteOffset": 561048,
      "componentType": 5126,
      "count": 7753,
      "max": [
        1.0,
        0.9756255149841309
      ],
      "min": [
        0.00013005733489990234,
        0.0
      ],
      "type": "VEC2"
    },
    {
      "bufferView": 0,
      "byteOffset": 1015872,
      "componentType": 5125,
      "count": 35112,
      "type": "SCALAR"
    },
    {
      "bufferView": 2,
      "byteOffset": 1869216,
      "componentType": 5126,
      "count": 7813,
      "max": [
        80.33063507080078,
        37.04029846191406,
        97.3077392578125
      ],
      "min": [
        4.914493560791016,
        -43.04450225830078,
        -52.222591400146484
      ],
      "type": "VEC3"
    },
    {
      "bufferView": 2,
      "byteOffset": 1962972,
      "componentType": 5126,
      "count": 7813,
      "max": [
        0.9998806118965149,
        0.9999881982803345,
        0.9999818801879883
      ],
      "min": [
        -0.9997632503509521,
        -0.9999505281448364,
        -0.9994211792945862
      ],
      "type": "VEC3"
    },
    {
      "bufferView": 1,
      "byteOffset": 623072,
      "componentType": 5126,
      "count": 7813,
      "max": [
        0.9880504608154297,
        0.9897458553314209
      ],
      "min": [
        0.0,
        0.0
      ],
      "type": "VEC2"
    },
    {
      "bufferView": 0,
      "byteOffset": 1156320,
      "componentType": 5125,
      "count": 35808,
      "type": "SCALAR"
    },
    {
      "bufferView": 2,
      "byteOffset": 2056728,
      "componentType": 5126,
      "count": 65532,
      "max": [
        11.98963737487793,
        6.499197006225586,
        165.17803955078125
      ],
      "min": [
        -14.848388671875,
        -13.447270393371582,
        155.34291076660156
      ],
      "type": "VEC3"
    },
    {
      "bufferView": 2,
      "byteOffset": 2843112,
      "componentType": 5126,
      "count": 65532,
      "max": [
        0.9998347163200378,
        0.9998300075531006,
        0.9999856948852539
      ],
      "min": [
        -0.9974412322044373,
        -0.9999030232429504,
        -0.9997298121452332
      ],
      "type": "VEC3"
    },
    {
      "bufferView": 1,
      "byteOffset": 685576,
      "componentType": 5126,
      "count": 65532,
      "max": [
        0.9212344884872437,
        1.0000001192092896
      ],
      "min": [
        0.0,
        0.0
      ],
      "type": "VEC2"
    },
    {
      "bufferView": 0,
      "byteOffset": 1299552,
      "componentType": 5125,
      "count": 67680,
      "type": "SCALAR"
    },
    {
      "bufferView": 2,
      "byteOffset": 3629496,
      "componentType": 5126,
      "count": 44464,
      "max": [
        12.147282600402832,
        6.547332763671875,
        164.91482543945313
      ],
      "min": [
        -11.465768814086914,
        -13.44650650024414,
        155.34291076660156
      ],
      "type": "VEC3"
    },
    {
      "bufferView": 2,
      "byteOffset": 4163064,
      "componentType": 5126,
      "count": 44464,
      "max": [
        0.9999395608901978,
        0.9997402429580688,
        0.9998234510421753
      ],
      "min": [
        -0.999704897403717,
        -0.9983848333358765,
        -0.9999969005584717
      ],
      "type": "VEC3"
    },
    {
      "bufferView": 1,
      "byteOffset": 1209832,
      "componentType": 5126,
      "count": 44464,
      "max": [
        0.9189558029174805,
        0.8789559602737427
      ],
      "min": [
        0.0,
        0.0
      ],
      "type": "VEC2"
    },
    {
      "bufferView": 0,
      "byteOffset": 1570272,
      "componentType": 5125,
      "count": 45984,
      "type": "SCALAR"
    }
  ],
  "asset": {
    "extras": {
      "author": "sykpresents (https://sketchfab.com/sykpresents)",
      "license": "CC-BY-NC-ND-4.0 (http://creativecommons.org/licenses/by-nc-nd/4.0/)",
      "source": "https://sketchfab.com/3d-models/human-lungs-trachea-larynx-hyoid-bone-95d655e6f4bb4d519dc97e867585c7ec",
      "title": "Human Lungs, Trachea, Larynx, Hyoid Bone"
    },
    "generator": "Sketchfab-12.67.0",
    "version": "2.0"
  },
  "bufferViews": [
    {
      "buffer": 0,
      "byteLength": 1754208,
      "name": "floatBufferViews",
      "target": 34963
    },
    {
      "buffer": 0,
      "byteLength": 1565544,
      "byteOffset": 1754208,
      "byteStride": 8,
      "name": "floatBufferViews",
      "target": 34962
    },
    {
      "buffer": 0,
      "byteLength": 4696632,
      "byteOffset": 3319752,
      "byteStride": 12,
      "name": "floatBufferViews",
      "target": 34962
    }
  ],
  "buffers": [
    {
      "byteLength": 8016384,
      "uri": "scene.bin"
    }
  ],
  "images": [
    {
      "uri": "textures/Material_25_metallicRoughness.png"
    }
  ],
  "materials": [
    {
      "doubleSided": true,
      "name": "Material_30",
      "pbrMetallicRoughness": {
        "baseColorFactor": [
          0.5978448804492565,
          0.5462818279520575,
          0.4911551256124061,
          1.0
        ],
        "metallicFactor": 0.0
      }
    },
    {
      "doubleSided": true,
      "name": "Material_25",
      "pbrMetallicRoughness": {
        "baseColorFactor": [
          0.4658348552926145,
          0.1514781716161602,
          0.20860345868742153,
          1.0
        ],
        "metallicFactor": 0.0,
        "metallicRoughnessTexture": {
          "index": 0
        }
      }
    },
    {
      "doubleSided": true,
      "name": "Material_28",
      "pbrMetallicRoughness": {
        "baseColorFactor": [
          0.5259747095201842,
          0.0815155585170098,
          0.0815155585170098,
          1.0
        ],
        "metallicFactor": 0.0,
        "roughnessFactor": 0.0
      }
    },
    {
      "doubleSided": true,
      "name": "Material_29",
      "pbrMetallicRoughness": {
        "metallicFactor": 0.0,
        "roughnessFactor": 0.6218877113620196
      }
    }
  ],
  "meshes": [
    {
      "name": "Object_0",
      "primitives": [
        {
          "attributes": {
            "NORMAL": 1,
            "POSITION": 0,
            "TEXCOORD_0": 2
          },
          "indices": 3,
          "material": 3,
          "mode": 4
        }
      ]
    },
    {
      "name": "Object_1",
      "primitives": [
        {
          "attributes": {
            "NORMAL": 5,
            "POSITION": 4,
            "TEXCOORD_0": 6
          },
          "indices": 7,
          "material": 2,
          "mode": 4
        }
      ]
    },
    {
      "name": "Object_2",
      "primitives": [
        {
          "attributes": {
            "NORMAL": 9,
            "POSITION": 8,
            "TEXCOORD_0": 10
          },
          "indices": 11,
          "material": 1,
          "mode": 4
        }
      ]
    },
    {
      "name": "Object_3",
      "primitives": [
        {
          "attributes": {
            "NORMAL": 13,
            "POSITION": 12,
            "TEXCOORD_0": 14
          },
          "indices": 15,
          "material": 1,
          "mode": 4
        }
      ]
    },
    {
      "name": "Object_4",
      "primitives": [
        {
          "attributes": {
            "NORMAL": 17,
            "POSITION": 16,
            "TEXCOORD_0": 18
          },
          "indices": 19,
          "material": 0,
          "mode": 4
        }
      ]
    },
    {
      "name": "Object_5",
      "primitives": [
        {
          "attributes": {
            "NORMAL": 21,
            "POSITION": 20,
            "TEXCOORD_0": 22
          },
          "indices": 23,
          "material": 0,
          "mode": 4
        }
      ]
    }
  ],
  "nodes": [
    {
      "children": [
        1
      ],
      "matrix": [
        1.0,
        0.0,
        0.0,
        0.0,
        0.0,
        2.220446049250313e-16,
        -1.0,
        0.0,
        0.0,
        1.0,
        2.220446049250313e-16,
        0.0,
        0.0,
        0.0,
        0.0,
        1.0
      ],
      "name": "Sketchfab_model"
    },
    {
      "children": [
        2,
        5,
        8,
        11,
        14
      ],
      "name": "11282d29009d4eca94031262fc5150cf.3ds"
    },
    {
      "children": [
        3
      ],
      "matrix": [
        -8.7130765914917,
        7.617213668709155e-07,
        0.0,
        0.0,
        -7.617213668709155e-07,
        -8.7130765914917,
        0.0,
        0.0,
        0.0,
        0.0,
        8.7130765914917,
        0.0,
        0.0,
        0.0,
        131.67518615722656,
        1.0
      ],
      "name": "larynx"
    },
    {
      "children": [
        4
      ],
      "matrix": [
        -0.11477002290746419,
        -1.0033514316888717e-08,
        0.0,
        0.0,
        1.0033514316888717e-08,
        -0.11477002290746419,
        0.0,
        0.0,
        0.0,
        0.0,
        0.11477002290746506,
        0.0,
        -0.0,
        -0.0,
        -15.112364131609619,
        1.0
      ],
      "name": "3DSMeshMatrix"
    },
    {
      "mesh": 0,
      "name": "Object_4"
    },
    {
      "children": [
        6
      ],
      "matrix": [
        0.5803837776184082,
        5.523880481719971,
        -0.015273074619472027,
        0.0,
        -5.800905704498291,
        0.6099123358726501,
        0.15265367925167084,
        0.0,
        0.1461137980222702,
        -2.5864270725151073e-08,
        5.552387714385986,
        0.0,
        -1.8037900924682617,
        0.0,
        69.12338256835938,
        1.0
      ],
      "name": "Cylinder"
    },
    {
      "children": [
        7
      ],
      "matrix": [
        0.017908249400036925,
        -0.1703853694628079,
        0.004508472585694612,
        0.0,
        0.17905414167185402,
        0.01881938568742974,
        -4.570837701389774e-10,
        0.0,
        -0.0004950697415657535,
        0.004710265526213533,
        0.17997807636053098,
        0.0,
        0.06652361798550568,
        -0.6329289273055698,
        -12.432561088004139,
        1.0
      ],
      "name": "3DSMeshMatrix"
    },
    {
      "mesh": 1,
      "name": "Object_7"
    },
    {
      "children": [
        9
      ],
      "matrix": [
        -13.319940567016602,
        1.16460171284416e-06,
        -0.4064035415649414,
        0.0,
        -1.1651435443127411e-06,
        -13.326139450073242,
        -2.0653802019349188e-12,
        0.0,
        -0.4064035415649414,
        3.553099148234651e-08,
        13.319940567016602,
        0.0,
        -30.152551651000977,
        -8.71316146850586,
        16.30864143371582,
        1.0
      ],
      "name": "lung right"
    },
    {
      "children": [
        10
      ],
      "matrix": [
        -0.07500558618293804,
        -6.560247823446341e-09,
        -0.002288488711581937,
        0.0,
        6.5571967802579585e-09,
        -0.07504048743798011,
        2.0006604274303077e-10,
        0.0,
        -0.0022884887115819544,
        5.136067045436494e-19,
        0.07500558618293861,
        0.0,
        -2.2242876125384337,
        -0.6538400815307177,
        -1.2922429829187148,
        1.0
      ],
      "name": "3DSMeshMatrix"
    },
    {
      "mesh": 2,
      "name": "Object_10"
    },
    {
      "children": [
        12
      ],
      "matrix": [
        -12.237058639526367,
        1.069861241376202e-06,
        0.26701343059539795,
        0.0,
        -1.0002860335589503e-06,
        -11.44125747680664,
        6.490899397831873e-13,
        0.0,
        0.28721314668655396,
        -2.5109715195981153e-08,
        13.162796974182129,
        0.0,
        -49.22846221923828,
        -5.05815315246582,
        59.26835250854492,
        1.0
      ],
      "name": "lung left"
    },
    {
      "children": [
        13
      ],
      "matrix": [
        -0.08168010128207623,
        -7.641011323883665e-09,
        0.0016569186699061642,
        0.0,
        7.140700998879745e-09,
        -0.08740298013808019,
        -1.4485242568936123e-10,
        0.0,
        0.0017822654985043091,
        1.340013678334211e-17,
        0.07593554114186418,
        0.0,
        -4.126617683738657,
        -0.4420980356755759,
        -4.419006862913982,
        1.0
      ],
      "name": "3DSMeshMatrix"
    },
    {
      "mesh": 3,
      "name": "Object_13"
    },
    {
      "children": [
        15
      ],
      "matrix": [
        0.018855948001146317,
        -1.204153299331665,
        -0.16394606232643127,
        0.0,
        1.2151625156402588,
        0.020790496841073036,
        -0.012942824512720108,
        0.0,
        0.015627387911081314,
        -0.1637120097875595,
        1.2042316198349,
        0.0,
        -0.8696670532226563,
        -10.316688537597656,
        157.15750122070313,
        1.0
      ],
      "name": "hyoid bone"
    },
    {
      "children": [
        16,
        17
      ],
      "matrix": [
        0.012764528017265696,
        0.822601074552833,
        0.010578920105748723,
        0.0,
        -0.8151487874717834,
        0.014074121557325618,
        -0.11082442357785514,
        0.0,
        -0.11098290420413379,
        -0.008761606312423346,
        0.8152014727274296,
        0.0,
        9.043260640258111,
        2.2375395357713623,
        -129.24916736741687,
        1.0
      ],
      "name": "3DSMeshMatrix"
    },
    {
      "mesh": 4,
      "name": "Object_16"
    },
    {
      "mesh": 5,
      "name": "Object_17"
    }
  ],
  "samplers": [
    {
      "magFilter": 9729,
      "minFilter": 9987,
      "wrapS": 10497,
      "wrapT": 10497
    }
  ],
  "scene": 0,
  "scenes": [
    {
      "name": "Sketchfab_Scene",
      "nodes": [
        0
      ]
    }
  ],
  "textures": [
    {
      "sampler": 0,
      "source": 0
    }
  ]
}
