{
  "accessors": [
    {
      "bufferView": 2,
      "componentType": 5126,
      "count": 25572,
      "max": [
        0.7122490406036377,
        1.3695435523986816,
        0.7750514149665833
      ],
      "min": [
        -0.5624929666519165,
        -0.9851997494697571,
        -0.8879902362823486
      ],
      "type": "VEC3"
    },
    {
      "bufferView": 2,
      "byteOffset": 306864,
      "componentType": 5126,
      "count": 25572,
      "max": [
        0.9999529123306274,
        0.9999806880950928,
        0.9999946355819702
      ],
      "min": [
        -0.999971866607666,
        -0.9999978542327881,
        -0.9993573427200317
      ],
      "type": "VEC3"
    },
    {
      "bufferView": 3,
      "componentType": 5126,
      "count": 25572,
      "max": [
        0.9999161958694458,
        0.9999968409538269,
        0.9999416470527649,
        1.0
      ],
      "min": [
        -0.99991774559021,
        -0.937836766242981,
        -0.6037682890892029,
        1.0
      ],
      "type": "VEC4"
    },
    {
      "bufferView": 1,
      "componentType": 5126,
      "count": 25572,
      "max": [
        0.9998199343681335,
        0.9459283947944641
      ],
      "min": [
        0.00018006916798185557,
        0.00018006916798185557
      ],
      "type": "VEC2"
    },
    {
      "bufferView": 1,
      "byteOffset": 204576,
      "componentType": 5126,
      "count": 25572,
      "max": [
        0.9998199343681335,
        0.9459283947944641
      ],
      "min": [
        0.00018006916798185557,
        0.00018006916798185557
      ],
      "type": "VEC2"
    },
    {
      "bufferView": 0,
      "componentType": 5125,
      "count": 150528,
      "type": "SCALAR"
    },
    {
      "bufferView": 2,
      "byteOffset": 613728,
      "componentType": 5126,
      "count": 6300,
      "max": [
        0.08837731927633286,
        0.09626452624797821,
        0.09520962834358215
      ],
      "min": [
        -0.10325825959444046,
        -0.094890296459198,
        -1.0239843130111694
      ],
      "type": "VEC3"
    },
    {
      "bufferView": 2,
      "byteOffset": 689328,
      "componentType": 5126,
      "count": 6300,
      "max": [
        0.9999754428863525,
        0.9999828338623047,
        0.9999938011169434
      ],
      "min": [
        -0.9998137950897217,
        -0.9999960660934448,
        -0.9997047185897827
      ],
      "type": "VEC3"
    },
    {
      "bufferView": 3,
      "byteOffset": 409152,
      "componentType": 5126,
      "count": 6300,
      "max": [
        0.9998626708984375,
        0.9999099969863892,
        0.986413836479187,
        1.0
      ],
      "min": [
        -0.9998345375061035,
        -0.9999896883964539,
        -0.9999816417694092,
        1.0
      ],
      "type": "VEC4"
    },
    {
      "bufferView": 1,
      "byteOffset": 409152,
      "componentType": 5126,
      "count": 6300,
      "max": [
        0.7450755834579468,
        0.9998643398284912
      ],
      "min": [
        0.00013571474119089544,
        0.00013571474119089544
      ],
      "type": "VEC2"
    },
    {
      "bufferView": 1,
      "byteOffset": 459552,
      "componentType": 5126,
      "count": 6300,
      "max": [
        0.7450755834579468,
        0.9998643398284912
      ],
      "min": [
        0.00013571474119089544,
        0.00013571474119089544
      ],
      "type": "VEC2"
    },
    {
      "bufferView": 0,
      "byteOffset": 602112,
      "componentType": 5125,
      "count": 35712,
      "type": "SCALAR"
    },
    {
      "bufferView": 2,
      "byteOffset": 764928,
      "componentType": 5126,
      "count": 4749,
      "max": [
        0.13586105406284332,
        0.14859771728515625,
        0.4372710585594177
      ],
      "min": [
        -0.05408690497279167,
        -0.12631401419639587,
        -0.28592827916145325
      ],
      "type": "VEC3"
    },
    {
      "bufferView": 2,
      "byteOffset": 821916,
      "componentType": 5126,
      "count": 4749,
      "max": [
        0.999366283416748,
        0.9998468160629272,
        0.9993773698806763
      ],
      "min": [
        -0.9998370409011841,
        -0.9999220371246338,
        -0.9987003207206726
      ],
      "type": "VEC3"
    },
    {
      "bufferView": 3,
      "byteOffset": 509952,
      "componentType": 5126,
      "count": 4749,
      "max": [
        0.9998795390129089,
        0.9999425411224365,
        0.9698736071586609,
        1.0
      ],
      "min": [
        -0.999374270439148,
        -0.9981134533882141,
        -0.9999813437461853,
        -1.0
      ],
      "type": "VEC4"
    },
    {
      "bufferView": 1,
      "byteOffset": 509952,
      "componentType": 5126,
      "count": 4749,
      "max": [
        0.8971894383430481,
        1.0025887489318848
      ],
      "min": [
        0.00013719353592023253,
        0.00013719353592023253
      ],
      "type": "VEC2"
    },
    {
      "bufferView": 1,
      "byteOffset": 547944,
      "componentType": 5126,
      "count": 4749,
      "max": [
        0.8971894383430481,
        1.0025887489318848
      ],
      "min": [
        0.00013719353592023253,
        0.00013719353592023253
      ],
      "type": "VEC2"
    },
    {
      "bufferView": 0,
      "byteOffset": 744960,
      "componentType": 5125,
      "count": 26880,
      "type": "SCALAR"
    },
    {
      "bufferView": 2,
      "byteOffset": 878904,
      "componentType": 5126,
      "count": 2196,
      "max": [
        0.04215877875685692,
        0.03085409104824066,
        0.12311501801013947
      ],
      "min": [
        -0.04633314162492752,
        -0.08259233832359314,
        -0.05546633526682854
      ],
      "type": "VEC3"
    },
    {
      "bufferView": 2,
      "byteOffset": 905256,
      "componentType": 5126,
      "count": 2196,
      "max": [
        0.9923154711723328,
        0.9994072914123535,
        0.9758895635604858
      ],
      "min": [
        -0.9963154196739197,
        -0.9987401366233826,
        -0.9999542236328125
      ],
      "type": "VEC3"
    },
    {
      "bufferView": 3,
      "byteOffset": 585936,
      "componentType": 5126,
      "count": 2196,
      "max": [
        0.9966633915901184,
        0.9999217987060547,
        0.9899218082427979,
        1.0
      ],
      "min": [
        -0.995186448097229,
        -0.999957263469696,
        -0.8674557209014893,
        -1.0
      ],
      "type": "VEC4"
    },
    {
      "bufferView": 1,
      "byteOffset": 585936,
      "componentType": 5126,
      "count": 2196,
      "max": [
        0.959956169128418,
        0.9998005032539368
      ],
      "min": [
        0.00019948121916968375,
        0.00019948121916968375
      ],
      "type": "VEC2"
    },
    {
      "bufferView": 1,
      "byteOffset": 603504,
      "componentType": 5126,
      "count": 2196,
      "max": [
        0.959956169128418,
        0.9998005032539368
      ],
      "min": [
        0.00019948121916968375,
        0.00019948121916968375
      ],
      "type": "VEC2"
    },
    {
      "bufferView": 0,
      "byteOffset": 852480,
      "componentType": 5125,
      "count": 11784,
      "type": "SCALAR"
    },
    {
      "bufferView": 2,
      "byteOffset": 931608,
      "componentType": 5126,
      "count": 2337,
      "max": [
        0.09042001515626907,
        0.2636103630065918,
        0.22193390130996704
      ],
      "min": [
        -0.01661676913499832,
        -0.038628507405519485,
        -0.045306496322155
      ],
      "type": "VEC3"
    },
    {
      "bufferView": 2,
      "byteOffset": 959652,
      "componentType": 5126,
      "count": 2337,
      "max": [
        0.9995213747024536,
        0.9995623826980591,
        0.9888428449630737
      ],
      "min": [
        -0.9997938871383667,
        -0.9998384714126587,
        -0.9958634972572327
      ],
      "type": "VEC3"
    },
    {
      "bufferView": 3,
      "byteOffset": 621072,
      "componentType": 5126,
      "count": 2337,
      "max": [
        0.9998060464859009,
        0.9999291896820068,
        0.9999850988388062,
        1.0
      ],
      "min": [
        -0.9999116063117981,
        -0.9983757734298706,
        -0.9501473903656006,
        1.0
      ],
      "type": "VEC4"
    },
    {
      "bufferView": 1,
      "byteOffset": 621072,
      "componentType": 5126,
      "count": 2337,
      "max": [
        0.9864476323127747,
        0.9670490026473999
      ],
      "min": [
        0.024074673652648926,
        0.007788293994963169
      ],
      "type": "VEC2"
    },
    {
      "bufferView": 1,
      "byteOffset": 639768,
      "componentType": 5126,
      "count": 2337,
      "max": [
        0.9864476323127747,
        0.9670490026473999
      ],
      "min": [
        0.024074673652648926,
        0.007788293994963169
      ],
      "type": "VEC2"
    },
    {
      "bufferView": 0,
      "byteOffset": 899616,
      "componentType": 5125,
      "count": 12672,
      "type": "SCALAR"
    }
  ],
  "asset": {
    "extras": {
      "author": "ElliotSS (https://sketchfab.com/ElliotSS)",
      "license": "CC-BY-4.0 (http://creativecommons.org/licenses/by/4.0/)",
      "source": "https://sketchfab.com/3d-models/human-liver-and-gallbladder-6c4e9bd0d49f4828b804259330c0c6c4",
      "title": "Human liver and gallbladder"
    },
    "generator": "Sketchfab-12.67.0",
    "version": "2.0"
  },
  "bufferViews": [
    {
      "buffer": 0,
      "byteLength": 950304,
      "name": "floatBufferViews",
      "target": 34963
    },
    {
      "buffer": 0,
      "byteLength": 658464,
      "byteOffset": 950304,
      "byteStride": 8,
      "name": "floatBufferViews",
      "target": 34962
    },
    {
      "buffer": 0,
      "byteLength": 987696,
      "byteOffset": 1608768,
      "byteStride": 12,
      "name": "floatBufferViews",
      "target": 34962
    },
    {
      "buffer": 0,
      "byteLength": 658464,
      "byteOffset": 2596464,
      "byteStride": 16,
      "name": "floatBufferViews",
      "target": 34962
    }
  ],
  "buffers": [
    {
      "byteLength": 3254928,
      "uri": "scene.bin"
    }
  ],
  "images": [
    {
      "uri": "textures/Material.011_baseColor.png"
    },
    {
      "uri": "textures/Material.011_normal.png"
    },
    {
      "uri": "textures/Material.012_baseColor.png"
    },
    {
      "uri": "textures/Material.012_metallicRoughness.png"
    },
    {
      "uri": "textures/Material.012_normal.png"
    },
    {
      "uri": "textures/Material.013_baseColor.png"
    },
    {
      "uri": "textures/Material.013_metallicRoughness.png"
    },
    {
      "uri": "textures/Material.013_normal.png"
    },
    {
      "uri": "textures/Material_baseColor.png"
    },
    {
      "uri": "textures/Material_metallicRoughness.png"
    },
    {
      "uri": "textures/Material_normal.png"
    },
    {
      "uri": "textures/Material.015_baseColor.png"
    },
    {
      "uri": "textures/Material.015_metallicRoughness.png"
    },
    {
      "uri": "textures/Material.015_normal.png"
    }
  ],
  "materials": [
    {
      "name": "Material.011",
      "normalTexture": {
        "index": 1,
        "scale": 0.7429064764070518
      },
      "pbrMetallicRoughness": {
        "baseColorTexture": {
          "index": 0
        },
        "metallicFactor": 0.0,
        "roughnessFactor": 0.06458695022580228
      }
    },
    {
      "name": "Material.012",
      "normalTexture": {
        "index": 4,
        "scale": 0.02062179575109167
      },
      "occlusionTexture": {
        "index": 3,
        "strength": 0.403746713316427
      },
      "pbrMetallicRoughness": {
        "baseColorTexture": {
          "index": 2
        },
        "metallicFactor": 0.0,
        "metallicRoughnessTexture": {
          "index": 3
        },
        "roughnessFactor": 0.5356421767405588
      }
    },
    {
      "doubleSided": true,
      "name": "Material.013",
      "normalTexture": {
        "index": 7
      },
      "occlusionTexture": {
        "index": 6
      },
      "pbrMetallicRoughness": {
        "baseColorTexture": {
          "index": 5
        },
        "metallicFactor": 0.0,
        "metallicRoughnessTexture": {
          "index": 6
        },
        "roughnessFactor": 0.3472200861346562
      }
    },
    {
      "doubleSided": true,
      "name": "Material",
      "normalTexture": {
        "index": 10,
        "scale": 0.17764020458934385
      },
      "occlusionTexture": {
        "index": 9
      },
      "pbrMetallicRoughness": {
        "baseColorFactor": [
          0.7680294218211721,
          0.7680294218211721,
          0.7680294218211721,
          1.0
        ],
        "baseColorTexture": {
          "index": 8
        },
        "metallicFactor": 0.0,
        "metallicRoughnessTexture": {
          "index": 9
        },
        "roughnessFactor": 0.4665540768517279
      }
    },
    {
      "name": "Material.015",
      "normalTexture": {
        "index": 13,
        "scale": 0.48539628591231815
      },
      "occlusionTexture": {
        "index": 12
      },
      "pbrMetallicRoughness": {
        "baseColorFactor": [
          0.5921688039223296,
          0.5921688039223296,
          0.5921688039223296,
          1.0
        ],
        "baseColorTexture": {
          "index": 11
        },
        "metallicFactor": 0.0,
        "metallicRoughnessTexture": {
          "index": 12
        },
        "roughnessFactor": 0.62357248568998
      }
    }
  ],
  "meshes": [
    {
      "name": "liver.001_Material.011_0",
      "primitives": [
        {
          "attributes": {
            "NORMAL": 1,
            "POSITION": 0,
            "TANGENT": 2,
            "TEXCOORD_0": 3,
            "TEXCOORD_1": 4
          },
          "indices": 5,
          "material": 0,
          "mode": 4
        }
      ]
    },
    {
      "name": "inferior vena cava.001_Material.012_0",
      "primitives": [
        {
          "attributes": {
            "NORMAL": 7,
            "POSITION": 6,
            "TANGENT": 8,
            "TEXCOORD_0": 9,
            "TEXCOORD_1": 10
          },
          "indices": 11,
          "material": 1,
          "mode": 4
        }
      ]
    },
    {
      "name": "gallbladder.002_Material.013_0",
      "primitives": [
        {
          "attributes": {
            "NORMAL": 13,
            "POSITION": 12,
            "TANGENT": 14,
            "TEXCOORD_0": 15,
            "TEXCOORD_1": 16
          },
          "indices": 17,
          "material": 2,
          "mode": 4
        }
      ]
    },
    {
      "name": "hepatic artery.001_Material_0",
      "primitives": [
        {
          "attributes": {
            "NORMAL": 19,
            "POSITION": 18,
            "TANGENT": 20,
            "TEXCOORD_0": 21,
            "TEXCOORD_1": 22
          },
          "indices": 23,
          "material": 3,
          "mode": 4
        }
      ]
    },
    {
      "name": "portal vein.001_Material.015_0",
      "primitives": [
        {
          "attributes": {
            "NORMAL": 25,
            "POSITION": 24,
            "TANGENT": 26,
            "TEXCOORD_0": 27,
            "TEXCOORD_1": 28
          },
          "indices": 29,
          "material": 4,
          "mode": 4
        }
      ]
    }
  ],
  "nodes": [
    {
      "children": [
        1
      ],
      "matrix": [
        0.016434578225016594,
        0.0,
        0.0,
        0.0,
        0.0,
        3.649209429083332e-18,
        -0.016434578225016594,
        0.0,
        0.0,
        0.016434578225016594,
        3.649209429083332e-18,
        0.0,
        0.0,
        0.0,
        0.0,
        1.0
      ],
      "name": "Sketchfab_model"
    },
    {
      "children": [
        2
      ],
      "matrix": [
        1.0,
        0.0,
        0.0,
        0.0,
        0.0,
        0.0,
        1.0,
        0.0,
        0.0,
        -1.0,
        0.0,
        0.0,
        0.0,
        0.0,
        0.0,
        1.0
      ],
      "name": "liver exported for sketchfab - now with the fucking base colours included.fbx"
    },
    {
      "children": [
        3,
        5,
        7,
        9,
        11
      ],
      "name": "RootNode"
    },
    {
      "children": [
        4
      ],
      "matrix": [
        6.500008583068848,
        0.0,
        0.0,
        0.0,
        0.0,
        -1.0589858144063121e-06,
        -6.5000085830687615,
        0.0,
        0.0,
        6.5000085830687615,
        -1.0589858144063121e-06,
        0.0,
        0.0,
        0.0,
        0.0,
        1.0
      ],
      "name": "liver.001"
    },
    {
      "mesh": 0,
      "name": "liver.001_Material.011_0"
    },
    {
      "children": [
        6
      ],
      "matrix": [
        6.439560327308141,
        0.8843600386632713,
        -0.009038414864395139,
        0.0,
        -0.008505855170501503,
        -0.004495615091983987,
        -6.500001463064563,
        0.0,
        -0.884365321208143,
        6.4395651011096335,
        -0.003296541214047068,
        0.0,
        -3.0152220726013184,
        7.079129695892334,
        0.1193903312087059,
        1.0
      ],
      "name": "inferior vena cava.001"
    },
    {
      "mesh": 1,
      "name": "inferior vena cava.001_Material.012_0"
    },
    {
      "children": [
        8
      ],
      "matrix": [
        -4.750490290264847,
        -4.425759185112165,
        -0.309207402019106,
        0.0,
        -1.6065642812654604,
        1.2937908573171382,
        6.1640220641763825,
        0.0,
        -4.135444932801075,
        4.581361416968386,
        -2.0394446192167157,
        0.0,
        0.23924024403095245,
        -2.6040027141571045,
        1.254441499710083,
        1.0
      ],
      "name": "gallbladder.002"
    },
    {
      "mesh": 2,
      "name": "gallbladder.002_Material.013_0"
    },
    {
      "children": [
        10
      ],
      "matrix": [
        4.419014975920418,
        -2.9410404800521466,
        -3.7513596358193113,
        0.0,
        0.6467327675069551,
        5.437961524393761,
        -3.501488650076502,
        0.0,
        4.722727490549561,
        2.0072286700514237,
        3.9896102185676896,
        0.0,
        -0.9935659170150757,
        -1.0825400352478027,
        -0.6817684769630432,
        1.0
      ],
      "name": "hepatic artery.001"
    },
    {
      "mesh": 3,
      "name": "hepatic artery.001_Material_0"
    },
    {
      "children": [
        12
      ],
      "matrix": [
        3.224751893724785,
        -5.471981878915456,
        1.3814851141825506,
        0.0,
        0.08445313187233493,
        -1.5441360264549986,
        -6.313368607984917,
        0.0,
        5.643044787382434,
        3.1501063202046575,
        -0.6949728620394502,
        0.0,
        -1.6203439235687256,
        -0.04124275967478752,
        -0.3491639792919159,
        1.0
      ],
      "name": "portal vein.001"
    },
    {
      "mesh": 4,
      "name": "portal vein.001_Material.015_0"
    }
  ],
  "samplers": [
    {
      "magFilter": 9729,
      "minFilter": 9987,
      "wrapS": 10497,
      "wrapT": 10497
    }
  ],
  "scene": 0,
  "scenes": [
    {
      "name": "Sketchfab_Scene",
      "nodes": [
        0
      ]
    }
  ],
  "textures": [
    {
      "sampler": 0,
      "source": 0
    },
    {
      "sampler": 0,
      "source": 1
    },
    {
      "sampler": 0,
      "source": 2
    },
    {
      "sampler": 0,
      "source": 3
    },
    {
      "sampler": 0,
      "source": 4
    },
    {
      "sampler": 0,
      "source": 5
    },
    {
      "sampler": 0,
      "source": 6
    },
    {
      "sampler": 0,
      "source": 7
    },
    {
      "sampler": 0,
      "source": 8
    },
    {
      "sampler": 0,
      "source": 9
    },
    {
      "sampler": 0,
      "source": 10
    },
    {
      "sampler": 0,
      "source": 11
    },
    {
      "sampler": 0,
      "source": 12
    },
    {
      "sampler": 0,
      "source": 13
    }
  ]
}
